# xmcd
#
# Track frame offsets:
#	150
#	19557
#	43765
#	62775
#	89072
#	108347
#	135017
#	160455
#	178987
#	198942
#	218110
#	244897
#	263382
#	282635
#	301467
#
# Disc length: 4285 seconds
#
# Revision: 0
# Processed by: cddbd v1.5.2PL0 Copyright (c) Steve Scherf et al.
# Submitted via: EasyCDDAExtractor 11.0.2.1
#
DISCID=d710bb0f
DTITLE=Gary Moore - Out in the Fields: The Very Best Of
DYEAR=1998
DGENRE=Blues
TTITLE0=01- Out In The Fields
TTITLE1=02- Over The Hills And Far Away
TTITLE2=03- Run For Cover
TTITLE3=04- Parisiene Walkways (Live)
TTITLE4=05- Empty Rooms
TTITLE5=06- The Loner
TTITLE6=07- Military Man
TTITLE7=08- After The War
TTITLE8=09- Cold Day In Hell
TTITLE9=10- Wild Frontier
TTITLE10=11- Still In Love With You
TTITLE11=12- Wishing Well
TTITLE12=13- Friday On My Mind
TTITLE13=14- Still Got The Blues
TTITLE14=15- Ready For Love
EXTD=
EXTT0=
EXTT1=
EXTT2=
EXTT3=
EXTT4=
EXTT5=
EXTT6=
EXTT7=
EXTT8=
EXTT9=
EXTT10=
EXTT11=
EXTT12=
EXTT13=
EXTT14=
PLAYORDER=
